<svg width="52" height="40" viewBox="0 0 52 40" fill="none" xmlns="http://www.w3.org/2000/svg">
<g id="Venezuela (VE)" clip-path="url(#clip0_101_168)">
<path id="Vector" d="M0 0.5H52V39.5H0V0.5Z" fill="#CF142B"/>
<path id="Vector_2" d="M0 0.5H52V26.5H0V0.5Z" fill="#00247D"/>
<path id="Vector_3" d="M0 0.5H52V13.5H0V0.5Z" fill="#FFCC00"/>
<g id="f">
<g id="e">
<g id="d">
<g id="c">
<g id="b">
<path id="a" d="M28.3139 14.6774L27.5629 16.1291L28.4083 16.5751L28.3139 14.6774Z" fill="white"/>
<path id="Vector_4" d="M28.3139 14.6774L28.5231 16.2984L27.5761 16.4284L28.3139 14.6774Z" fill="white"/>
</g>
<g id="b_2">
<path id="a_2" d="M29.6409 16.0516L28.0282 15.786L27.8652 16.7278L29.6409 16.0516Z" fill="white"/>
<path id="Vector_5" d="M29.6409 16.0516L28.1639 16.7515L27.7476 15.891L29.6409 16.0516Z" fill="white"/>
</g>
</g>
<g id="b_3">
<path id="a_3" d="M26.5969 15.5149L27.7454 16.6777L28.4309 16.0115L26.5969 15.5149Z" fill="white"/>
<path id="Vector_6" d="M26.5969 15.5149L28.2032 15.8168L28.0342 16.7577L26.5969 15.5149Z" fill="white"/>
</g>
<g id="c_2">
<g id="b_4">
<path id="a_4" d="M28.744 17.7383L28.4983 16.1225L27.5522 16.2585L28.744 17.7383Z" fill="white"/>
<path id="Vector_7" d="M28.744 17.7383L27.622 16.5499L28.3117 15.8881L28.744 17.7383Z" fill="white"/>
</g>
<g id="b_5">
<path id="a_5" d="M26.8628 17.4066L28.3236 16.6737L27.9018 15.8159L26.8628 17.4066Z" fill="white"/>
<path id="Vector_8" d="M26.8628 17.4066L27.6463 15.9723L28.4888 16.4237L26.8628 17.4066Z" fill="white"/>
</g>
</g>
</g>
<g id="d_2">
<g id="c_3">
<g id="b_6">
<path id="a_6" d="M32.6625 16.2602L31.4603 17.3674L32.1021 18.0757L32.6625 16.2602Z" fill="white"/>
<path id="Vector_9" d="M32.6625 16.2602L32.3047 17.855L31.3704 17.6533L32.6625 16.2602Z" fill="white"/>
</g>
<g id="b_7">
<path id="a_7" d="M33.4395 18.0054L32.0149 17.2042L31.5396 18.0335L33.4395 18.0054Z" fill="white"/>
<path id="Vector_10" d="M33.4395 18.0053L31.8122 18.1578L31.7153 17.2069L33.4395 18.0053Z" fill="white"/>
</g>
</g>
<g id="b_8">
<path id="a_8" d="M30.7627 16.4599L31.4442 17.9454L32.3162 17.5538L30.7627 16.4599Z" fill="white"/>
<path id="Vector_11" d="M30.7627 16.4599L32.1688 17.293L31.6882 18.1193L30.7627 16.4599Z" fill="white"/>
</g>
<g id="c_4">
<g id="b_9">
<path id="a_9" d="M32.0199 19.2836L32.3416 17.6812L31.406 17.4854L32.0199 19.2836Z" fill="white"/>
<path id="Vector_12" d="M32.0199 19.2836L31.372 17.7831L32.2464 17.3971L32.0199 19.2836Z" fill="white"/>
</g>
<g id="b_10">
<path id="a_10" d="M30.3655 18.3285L31.9889 18.1393L31.886 17.189L30.3655 18.3285Z" fill="white"/>
<path id="Vector_13" d="M30.3655 18.3285L31.5923 17.2486L32.2297 17.961L30.3655 18.3285Z" fill="white"/>
</g>
</g>
</g>
</g>
<g id="e_2">
<g id="d_3">
<g id="c_5">
<g id="b_11">
<path id="a_11" d="M36.2075 19.2349L34.6992 19.8642L35.06 20.7493L36.2075 19.2349Z" fill="white"/>
<path id="Vector_14" d="M36.2075 19.2349L35.3259 20.6111L34.5169 20.102L36.2075 19.2349Z" fill="white"/>
</g>
<g id="b_12">
<path id="a_12" d="M36.3408 21.1405L35.2762 19.9004L34.5459 20.5172L36.3408 21.1405Z" fill="white"/>
<path id="Vector_15" d="M36.3408 21.1405L34.7595 20.7273L34.9937 19.8006L36.3408 21.1405Z" fill="white"/>
</g>
</g>
<g id="b_13">
<path id="a_13" d="M34.354 18.7728L34.4864 20.4018L35.4397 20.3321L34.354 18.7728Z" fill="white"/>
<path id="Vector_16" d="M34.354 18.7728L35.3904 20.0366L34.6562 20.6486L34.354 18.7728Z" fill="white"/>
</g>
<g id="c_6">
<g id="b_14">
<path id="a_14" d="M34.5696 21.8561L35.42 20.4604L34.6078 19.9564L34.5696 21.8561Z" fill="white"/>
<path id="Vector_17" d="M34.5696 21.8562L34.474 20.2246L35.4277 20.1609L34.5696 21.8562Z" fill="white"/>
</g>
<g id="b_15">
<path id="a_15" d="M33.3417 20.3928L34.9319 20.7703L35.1602 19.8421L33.3417 20.3928Z" fill="white"/>
<path id="Vector_18" d="M33.3417 20.3927L34.8639 19.7976L35.2191 20.685L33.3417 20.3927Z" fill="white"/>
</g>
</g>
</g>
<g id="d_4">
<g id="c_7">
<g id="b_16">
<path id="a_16" d="M38.5214 23.2426L36.8887 23.318L36.9251 24.2732L38.5214 23.2426Z" fill="white"/>
<path id="Vector_19" d="M38.5214 23.2426L37.2222 24.2342L36.6361 23.4792L38.5214 23.2426Z" fill="white"/>
</g>
<g id="b_17">
<path id="a_17" d="M37.9948 25.0789L37.4186 23.5495L36.5214 23.8792L37.9948 25.0789Z" fill="white"/>
<path id="Vector_20" d="M37.9949 25.0789L36.6503 24.1497L37.1873 23.359L37.9949 25.0789Z" fill="white"/>
</g>
</g>
<g id="b_18">
<path id="a_18" d="M36.9377 22.1743L36.5049 23.7504L37.4246 24.011L36.9377 22.1743Z" fill="white"/>
<path id="Vector_21" d="M36.9377 22.1744L37.4793 23.7164L36.5801 24.0405L36.9377 22.1744Z" fill="white"/>
</g>
<g id="c_8">
<g id="b_19">
<path id="a_19" d="M36.0857 25.1455L37.3622 24.1249L36.7713 23.3735L36.0857 25.1455Z" fill="white"/>
<path id="Vector_22" d="M36.0857 25.1455L36.5539 23.5796L37.4719 23.846L36.0857 25.1455Z" fill="white"/>
</g>
<g id="b_20">
<path id="a_20" d="M35.4323 23.3505L36.7975 24.2491L37.3295 23.455L35.4323 23.3505Z" fill="white"/>
<path id="Vector_23" d="M35.4323 23.3505L37.0663 23.3118L37.0966 24.2672L35.4323 23.3505Z" fill="white"/>
</g>
</g>
</g>
</g>
</g>
<g id="f_2">
<g id="e_3">
<g id="d_5">
<g id="c_9">
<g id="b_21">
<path id="a_21" d="M13.4786 23.2426L14.7778 24.2342L15.3639 23.4792L13.4786 23.2426Z" fill="white"/>
<path id="Vector_24" d="M13.4786 23.2426L15.1113 23.318L15.0749 24.2732L13.4786 23.2426Z" fill="white"/>
</g>
<g id="b_22">
<path id="a_22" d="M15.0623 22.1744L14.5207 23.7164L15.4199 24.0405L15.0623 22.1744Z" fill="white"/>
<path id="Vector_25" d="M15.0623 22.1743L15.4951 23.7504L14.5754 24.011L15.0623 22.1743Z" fill="white"/>
</g>
</g>
<g id="b_23">
<path id="a_23" d="M14.0052 25.0789L15.3497 24.1497L14.8127 23.359L14.0052 25.0789Z" fill="white"/>
<path id="Vector_26" d="M14.0052 25.0789L14.5814 23.5495L15.4786 23.8792L14.0052 25.0789Z" fill="white"/>
</g>
<g id="c_10">
<g id="b_24">
<path id="a_24" d="M16.5677 23.3505L14.9337 23.3118L14.9034 24.2672L16.5677 23.3505Z" fill="white"/>
<path id="Vector_27" d="M16.5677 23.3505L15.2025 24.2491L14.6705 23.455L16.5677 23.3505Z" fill="white"/>
</g>
<g id="b_25">
<path id="a_25" d="M15.9143 25.1455L15.4461 23.5796L14.5281 23.846L15.9143 25.1455Z" fill="white"/>
<path id="Vector_28" d="M15.9143 25.1455L14.6378 24.1249L15.2287 23.3735L15.9143 25.1455Z" fill="white"/>
</g>
</g>
</g>
<g id="d_6">
<g id="c_11">
<g id="b_26">
<path id="a_26" d="M15.7925 19.2349L16.6741 20.6111L17.4831 20.102L15.7925 19.2349Z" fill="white"/>
<path id="Vector_29" d="M15.7925 19.2349L17.3008 19.8642L16.94 20.7493L15.7925 19.2349Z" fill="white"/>
</g>
<g id="b_27">
<path id="a_27" d="M17.646 18.7727L16.6096 20.0365L17.3438 20.6486L17.646 18.7727Z" fill="white"/>
<path id="Vector_30" d="M17.646 18.7727L17.5136 20.4017L16.5603 20.332L17.646 18.7727Z" fill="white"/>
</g>
</g>
<g id="b_28">
<path id="a_28" d="M15.6592 21.1405L17.2405 20.7273L17.0063 19.8006L15.6592 21.1405Z" fill="white"/>
<path id="Vector_31" d="M15.6592 21.1405L16.7238 19.9004L17.4541 20.5172L15.6592 21.1405Z" fill="white"/>
</g>
<g id="c_12">
<g id="b_29">
<path id="a_29" d="M18.6583 20.3927L17.1361 19.7976L16.7809 20.685L18.6583 20.3927Z" fill="white"/>
<path id="Vector_32" d="M18.6583 20.3927L17.0681 20.7702L16.8398 19.842L18.6583 20.3927Z" fill="white"/>
</g>
<g id="b_30">
<path id="a_30" d="M17.4304 21.8561L17.526 20.2245L16.5723 20.1608L17.4304 21.8561Z" fill="white"/>
<path id="Vector_33" d="M17.4304 21.8561L16.58 20.4603L17.3922 19.9564L17.4304 21.8561Z" fill="white"/>
</g>
</g>
</g>
</g>
<g id="e_4">
<g id="d_7">
<g id="c_13">
<g id="b_31">
<path id="a_31" d="M19.3375 16.2602L19.6953 17.855L20.6296 17.6533L19.3375 16.2602Z" fill="white"/>
<path id="Vector_34" d="M19.3375 16.2602L20.5397 17.3674L19.8978 18.0757L19.3375 16.2602Z" fill="white"/>
</g>
<g id="b_32">
<path id="a_32" d="M21.2373 16.4599L19.8312 17.293L20.3118 18.1193L21.2373 16.4599Z" fill="white"/>
<path id="Vector_35" d="M21.2373 16.4599L20.5558 17.9454L19.6838 17.5539L21.2373 16.4599Z" fill="white"/>
</g>
</g>
<g id="b_33">
<path id="a_33" d="M18.5605 18.0053L20.1878 18.1578L20.2847 17.2069L18.5605 18.0053Z" fill="white"/>
<path id="Vector_36" d="M18.5605 18.0054L19.9851 17.2042L20.4604 18.0335L18.5605 18.0054Z" fill="white"/>
</g>
<g id="c_14">
<g id="b_34">
<path id="a_34" d="M21.6345 18.3284L20.4077 17.2485L19.7703 17.9609L21.6345 18.3284Z" fill="white"/>
<path id="Vector_37" d="M21.6345 18.3284L20.0111 18.1392L20.114 17.1889L21.6345 18.3284Z" fill="white"/>
</g>
<g id="b_35">
<path id="a_35" d="M19.9801 19.2836L20.628 17.7831L19.7536 17.3971L19.9801 19.2836Z" fill="white"/>
<path id="Vector_38" d="M19.9801 19.2836L19.6584 17.6812L20.594 17.4854L19.9801 19.2836Z" fill="white"/>
</g>
</g>
</g>
<g id="d_8">
<g id="c_15">
<g id="b_36">
<path id="a_36" d="M23.6861 14.6774L23.4769 16.2984L24.4239 16.4284L23.6861 14.6774Z" fill="white"/>
<path id="Vector_39" d="M23.6861 14.6774L24.4371 16.1291L23.5917 16.5751L23.6861 14.6774Z" fill="white"/>
</g>
<g id="b_37">
<path id="a_37" d="M25.4031 15.5148L23.7968 15.8168L23.9658 16.7576L25.4031 15.5148Z" fill="white"/>
<path id="Vector_40" d="M25.4031 15.5148L24.2546 16.6776L23.5691 16.0115L25.4031 15.5148Z" fill="white"/>
</g>
</g>
<g id="b_38">
<path id="a_38" d="M22.3591 16.0516L23.8361 16.7515L24.2524 15.891L22.3591 16.0516Z" fill="white"/>
<path id="Vector_41" d="M22.3591 16.0516L23.9718 15.786L24.1348 16.7278L22.3591 16.0516Z" fill="white"/>
</g>
<g id="c_16">
<g id="b_39">
<path id="a_39" d="M25.1372 17.4066L24.3537 15.9722L23.5112 16.4237L25.1372 17.4066Z" fill="white"/>
<path id="Vector_42" d="M25.1372 17.4065L23.6764 16.6735L24.0982 15.8157L25.1372 17.4065Z" fill="white"/>
</g>
<g id="b_40">
<path id="a_40" d="M23.256 17.7383L24.378 16.5498L23.6883 15.888L23.256 17.7383Z" fill="white"/>
<path id="Vector_43" d="M23.256 17.7383L23.5017 16.1225L24.4478 16.2585L23.256 17.7383Z" fill="white"/>
</g>
</g>
</g>
</g>
</g>
</g>
<defs>
<clipPath id="clip0_101_168">
<rect width="52" height="39" fill="white" transform="translate(0 0.5)"/>
</clipPath>
</defs>
</svg>
